<svg width="176" height="14" viewBox="0 0 176 14" fill="none" xmlns="http://www.w3.org/2000/svg">
<path d="M6.714 1.382V5.442H1.464V1.382H0.05V11H1.464V6.758H6.714V11H8.128V1.382H6.714ZM13.2179 3.594C12.4199 3.594 11.5099 3.804 10.4739 4.322L10.9779 5.344C11.6079 5.022 12.3079 4.742 13.0219 4.742C14.4639 4.742 14.8839 5.708 14.8839 6.618V6.842C14.1839 6.604 13.4139 6.45 12.6999 6.45C11.1039 6.45 9.80188 7.416 9.80188 8.858C9.80188 10.272 10.9359 11.168 12.4759 11.168C13.3579 11.168 14.3519 10.762 14.8839 10.006V11H16.2419V6.618C16.2419 4.826 15.1639 3.594 13.2179 3.594ZM12.7419 10.076C11.8319 10.076 11.1319 9.6 11.1319 8.816C11.1319 8.032 11.9439 7.486 12.9099 7.486C13.6239 7.486 14.2959 7.584 14.8839 7.766V8.732C14.6459 9.628 13.6379 10.076 12.7419 10.076ZM20.6543 11H21.9563L25.0083 3.762H23.5103L21.2983 9.39L19.0443 3.762H17.5463L20.6543 11ZM29.1658 9.936C27.9198 9.936 27.0378 9.068 26.8558 7.864H32.5538C32.5538 5.274 31.2798 3.594 29.0678 3.594C27.0658 3.594 25.4558 5.19 25.4558 7.36C25.4558 9.586 27.1638 11.168 29.1798 11.168C30.2018 11.168 31.4618 10.734 32.1058 10.048L31.2378 9.152C30.8038 9.6 29.9218 9.936 29.1658 9.936ZM29.1238 4.826C30.3698 4.826 31.0558 5.638 31.2098 6.758H26.8698C27.0938 5.582 28.0038 4.826 29.1238 4.826ZM41.2042 3.594C40.4062 3.594 39.4962 3.804 38.4602 4.322L38.9642 5.344C39.5942 5.022 40.2942 4.742 41.0082 4.742C42.4502 4.742 42.8702 5.708 42.8702 6.618V6.842C42.1702 6.604 41.4002 6.45 40.6862 6.45C39.0902 6.45 37.7882 7.416 37.7882 8.858C37.7882 10.272 38.9222 11.168 40.4622 11.168C41.3442 11.168 42.3382 10.762 42.8702 10.006V11H44.2282V6.618C44.2282 4.826 43.1502 3.594 41.2042 3.594ZM40.7282 10.076C39.8182 10.076 39.1182 9.6 39.1182 8.816C39.1182 8.032 39.9302 7.486 40.8962 7.486C41.6102 7.486 42.2822 7.584 42.8702 7.766V8.732C42.6322 9.628 41.6242 10.076 40.7282 10.076ZM55.8105 3.762V5.008C55.2505 4.126 54.3545 3.594 53.2345 3.594C51.3305 3.594 49.9025 5.162 49.9025 7.374C49.9025 9.6 51.3305 11.168 53.2345 11.168C54.3545 11.168 55.2505 10.636 55.8105 9.74V13.408H57.1825V3.762H55.8105ZM53.5705 9.964C52.2405 9.964 51.3025 8.886 51.3025 7.374C51.3025 5.862 52.2405 4.798 53.5705 4.798C54.8725 4.798 55.8105 5.862 55.8105 7.374C55.8105 8.886 54.8725 9.964 53.5705 9.964ZM64.2459 3.762V8.452C64.1339 9.306 63.2659 9.964 62.2579 9.964C61.2779 9.964 60.5919 9.208 60.5919 8.13V3.762H59.2339V8.368C59.2339 10.006 60.3539 11.168 61.9499 11.168C62.9299 11.168 63.8119 10.664 64.2459 9.95V11H65.6319V3.762H64.2459ZM70.9608 9.936C69.7148 9.936 68.8328 9.068 68.6508 7.864H74.3488C74.3488 5.274 73.0748 3.594 70.8628 3.594C68.8608 3.594 67.2508 5.19 67.2508 7.36C67.2508 9.586 68.9588 11.168 70.9748 11.168C71.9968 11.168 73.2568 10.734 73.9008 10.048L73.0328 9.152C72.5988 9.6 71.7168 9.936 70.9608 9.936ZM70.9188 4.826C72.1648 4.826 72.8508 5.638 73.0048 6.758H68.6648C68.8888 5.582 69.7988 4.826 70.9188 4.826ZM78.5733 11.168C80.1553 11.168 81.3173 10.3 81.3173 8.928C81.3173 7.486 80.0433 7.094 78.8533 6.744C77.6353 6.366 77.1873 6.198 77.1873 5.638C77.1873 5.092 77.7473 4.784 78.4613 4.784C79.0913 4.784 79.8193 5.022 80.5193 5.456L81.1353 4.434C80.3513 3.916 79.3993 3.594 78.4613 3.594C76.9213 3.594 75.8153 4.462 75.8293 5.792C75.8293 6.968 76.6553 7.444 78.3213 7.906C79.2173 8.158 79.9593 8.368 79.9593 9.04C79.9593 9.6 79.3993 9.978 78.5873 9.978C77.7333 9.978 76.9073 9.656 76.1373 9.096L75.4793 10.09C76.3473 10.79 77.5093 11.168 78.5733 11.168ZM86.3159 9.698C86.1619 9.852 85.8819 9.964 85.5739 9.964C85.1679 9.964 84.8319 9.6 84.8319 9.096V4.938H86.5399V3.762H84.8319V1.774H83.4739V3.762H82.3819V4.938H83.4739V9.194C83.4739 10.356 84.2579 11.168 85.3779 11.168C85.8959 11.168 86.4279 10.972 86.8199 10.65L86.3159 9.698ZM88.9186 2.558C89.3666 2.558 89.7446 2.166 89.7446 1.718C89.7446 1.284 89.3666 0.891999 88.9186 0.891999C88.4426 0.891999 88.0786 1.284 88.0786 1.718C88.0786 2.166 88.4426 2.558 88.9186 2.558ZM88.2186 11H89.6046V3.762H88.2186V11ZM95.0396 11.168C97.0976 11.168 98.8336 9.432 98.8336 7.374C98.8336 5.316 97.0976 3.594 95.0396 3.594C92.9676 3.594 91.2176 5.316 91.2176 7.374C91.2176 9.432 92.9676 11.168 95.0396 11.168ZM95.0396 9.964C93.7096 9.964 92.6036 8.788 92.6036 7.374C92.6036 5.974 93.7096 4.798 95.0396 4.798C96.3416 4.798 97.4476 5.974 97.4476 7.374C97.4476 8.788 96.3416 9.964 95.0396 9.964ZM104.137 3.594C103.157 3.594 102.275 4.098 101.841 4.812V3.762H100.455V11H101.841V6.31C101.953 5.456 102.821 4.798 103.829 4.798C104.809 4.798 105.495 5.554 105.495 6.632V11H106.853V6.394C106.853 4.756 105.733 3.594 104.137 3.594ZM110.334 8.102H111.678V6.562C113.246 6.226 114.366 5.092 114.366 3.832C114.366 2.362 113.162 1.214 111.356 1.214C109.956 1.214 108.92 1.872 108.15 2.796L109.018 3.664C109.578 2.992 110.278 2.488 111.202 2.488C112.28 2.488 112.938 3.202 112.938 3.972C112.938 4.798 111.86 5.47 110.334 5.582V8.102ZM111.006 11.168C111.51 11.168 111.916 10.734 111.916 10.216C111.916 9.74 111.51 9.306 111.006 9.306C110.474 9.306 110.068 9.74 110.068 10.216C110.068 10.734 110.474 11.168 111.006 11.168Z" fill="black"/>
<path d="M124.404 7.052H126.98V9.068C126.322 9.572 125.412 9.866 124.6 9.866C122.668 9.866 121.044 8.186 121.044 6.184C121.044 4.196 122.668 2.516 124.6 2.516C125.594 2.516 126.728 2.964 127.386 3.678L128.38 2.726C127.47 1.788 125.958 1.214 124.6 1.214C121.898 1.214 119.588 3.482 119.588 6.184C119.588 8.886 121.898 11.168 124.6 11.168C125.958 11.168 127.47 10.58 128.38 9.656V5.82H124.404V7.052ZM133.66 9.936C132.414 9.936 131.532 9.068 131.35 7.864H137.048C137.048 5.274 135.774 3.594 133.562 3.594C131.56 3.594 129.95 5.19 129.95 7.36C129.95 9.586 131.658 11.168 133.674 11.168C134.696 11.168 135.956 10.734 136.6 10.048L135.732 9.152C135.298 9.6 134.416 9.936 133.66 9.936ZM133.618 4.826C134.864 4.826 135.55 5.638 135.704 6.758H131.364C131.588 5.582 132.498 4.826 133.618 4.826ZM142.042 9.698C141.888 9.852 141.608 9.964 141.3 9.964C140.894 9.964 140.558 9.6 140.558 9.096V4.938H142.266V3.762H140.558V1.774H139.2V3.762H138.108V4.938H139.2V9.194C139.2 10.356 139.984 11.168 141.104 11.168C141.622 11.168 142.154 10.972 142.546 10.65L142.042 9.698ZM151.647 3.594C150.653 3.594 149.771 4.112 149.337 4.84V1.214H147.965V11H149.337V6.506C149.337 5.568 150.247 4.798 151.339 4.798C152.319 4.798 153.005 5.554 153.005 6.632V11H154.363V6.394C154.363 4.756 153.243 3.594 151.647 3.594ZM159.664 9.936C158.418 9.936 157.536 9.068 157.354 7.864H163.052C163.052 5.274 161.778 3.594 159.566 3.594C157.564 3.594 155.954 5.19 155.954 7.36C155.954 9.586 157.662 11.168 159.678 11.168C160.7 11.168 161.96 10.734 162.604 10.048L161.736 9.152C161.302 9.6 160.42 9.936 159.664 9.936ZM159.622 4.826C160.868 4.826 161.554 5.638 161.708 6.758H157.368C157.592 5.582 158.502 4.826 159.622 4.826ZM164.658 11H166.03V1.214H164.658V11ZM172.067 3.594C170.947 3.594 170.051 4.126 169.491 5.008V3.762H168.119V13.408H169.491V9.74C170.051 10.636 170.947 11.168 172.067 11.168C173.971 11.168 175.399 9.6 175.399 7.374C175.399 5.162 173.971 3.594 172.067 3.594ZM171.731 9.964C170.429 9.964 169.491 8.886 169.491 7.374C169.491 5.862 170.429 4.798 171.731 4.798C173.061 4.798 173.999 5.862 173.999 7.374C173.999 8.886 173.061 9.964 171.731 9.964Z" fill="#FBAF03"/>
</svg>
